<?xml version="1.0" encoding="UTF-8"?>
<svg id="Layer_2" xmlns="http://www.w3.org/2000/svg" viewBox="0 0 3121.97 3300.75">
  <g id="Layer_1-2">
    <g>
      <g>
        <path d="M2153.44,2068.1l-87.64,173.69-5.07,8.25-139.09,225.39-97.28-111.15-41.91-47.92,79.54-84.51,46.93-58.71c82.32-125.22,248.26-190.69,244.53-105.04h-.01Z" fill="#fbbc3f"/>
        <path d="M2060.73,2250.04l-139.09,225.39-97.28-111.15c-2.68-27.64,2.04-56.22,12.23-82.17,15.06-38.53,41.36-71.83,71.28-100.36l1.89-1.94c38.62,15.76,82.42,18.64,122.78,8,7.41,20.83,18.74,40.07,27.44,60.4.25.6.5,1.19.75,1.84h0Z" fill="#ff9022"/>
        <path d="M1921.64,2485.37c-2.85,0-5.59-1.23-7.48-3.39l-139.19-159.07c-3.37-3.85-3.27-9.63.24-13.36l79.26-84.22,46.38-58.03c66.46-100.78,182.06-161.8,233.67-145.11,19.63,6.34,29.87,22.81,28.84,46.36-.06,1.41-.42,2.79-1.05,4.04l-87.64,173.69c-.13.25-.27.5-.42.74l-144.16,233.64c-1.66,2.69-4.49,4.43-7.64,4.69-.28.02-.55.03-.83.03h.02ZM1795.87,2316.6l124.38,142.14,136.86-221.81,86.45-171.32c.12-17.49-8.52-22.37-15.15-24.52-39.2-12.66-147.53,40.68-211.2,137.51-.17.25-.35.5-.54.74l-46.92,58.7c-.17.21-.35.42-.53.6l-73.35,77.95h0Z" fill="#3b0372"/>
        <path d="M2617.59,2057.86l-19.09,21.52c-35.25,7.01-72.53-.3-111.1-15.91-20.18-8.15-42.1-10.79-63.53-7.06-45.49,7.9-105.93,28.33-174.88,55.38-126.81,49.81-282.41,121.99-426.77,179.7l-24.85-69.59c158.97-69,310.69-137.95,430.05-182.94,78.49-29.58,142.97-48.72,186.36-50.71,39.27,0,75.41,21.72,119.11,28.14.05.05.1.05.15,0,11.58,1.74,23.66,2.39,36.49,1.24l1.24,1.04h.05l46.78,39.17v.02Z" fill="#9da9b9"/>
        <g opacity=".6">
          <path d="M2361.58,1996.43c21.51,14.45,35.68,39.28,37.18,65.14,25.27-12.79,55.92-14.5,82.46-4.6-13.03-14.02-19.9-33.57-18.5-52.66.1-1.33.23-2.7-.2-3.96-.51-1.5-1.75-2.63-2.99-3.61-15.81-12.57-37.9-12.46-58.09-11.75-12.97.46-27.15,1.39-36.65,10.23" fill="#fff"/>
        </g>
        <path d="M2249.38,2110.1c-.1.55-.25,1.14-.4,1.69-126.81,49.81-282.41,121.99-426.76,179.7l-24.85-69.59c158.97-69,310.69-137.95,430.05-182.94l-.05.1c-16.01,23.51-4.52,60.7,22.02,71.04h-.01Z" fill="#8393a5"/>
        <path d="M2541.38,2072.67c1.64-23.71-11.19-47.87-31.72-59.85l6.56.9c5.17,2.34,10.94,2.83,16.65,2.68.05.05.1.05.15,0,11.58,1.74,23.66,2.39,36.49,1.24l1.24,1.04h.05c5.42,21.03,13.42,41.41,23.71,60.55-17.9.2-35.84-1.99-53.14-6.56h.01Z" fill="#8393a5"/>
        <path d="M1822.22,2301.44c-1.4,0-2.79-.29-4.09-.88-2.46-1.11-4.36-3.17-5.28-5.72l-24.85-69.59c-1.76-4.93.6-10.38,5.41-12.47,38.85-16.86,77.27-33.72,114.89-50.23,219.98-96.53,409.95-179.9,505.03-184.22h.05c24.09,0,45.73,7.04,68.65,14.5,26.82,8.73,54.56,17.73,86.6,14.93,2.64-.28,5.23.58,7.25,2.27l48.09,40.2c2.06,1.72,3.34,4.21,3.54,6.89s-.7,5.33-2.49,7.34l-19.12,21.52c-1.44,1.62-3.37,2.73-5.49,3.15-34.36,6.84-72.53,1.45-116.74-16.42-18.8-7.59-38.9-9.85-58.11-6.51-86.94,15.1-231.07,77.43-383.67,143.43-71.32,30.84-145.07,62.74-215.98,91.1-1.19.48-2.44.71-3.69.71h0ZM1809.85,2227.32l18.25,51.1c67.71-27.28,137.9-57.64,205.89-87.05,153.71-66.48,298.89-129.26,388.16-144.77,22.86-3.98,46.72-1.33,68.97,7.66,39.08,15.8,72.58,21.04,102.19,15.95l10.04-11.3-37.13-31.04c-34.26,2.09-64.01-7.57-90.34-16.14-21.39-6.96-41.6-13.53-62.1-13.53-90.93,4.15-279.34,86.82-497.49,182.56-34.89,15.31-70.46,30.92-106.43,46.55h0Z" fill="#3b0372"/>
        <path d="M1675.25,2897.19l29.91,201.6c-41.03,18.18-70.97,40.17-82.83,65.99-10.71,23.31,2.1,51.14,25.97,58.67,74.3,23.43,175.66,37.04,214.88,19.47,35.86,8.42,70.15,9.41,102.25,0,185.91,0,92.95-172.97-27.89-153.75-27.38-7.55-54.98-13.2-83.66-9.61-17.29-85.56-29.98-165.93-31.64-233.88l-147,51.5h.01Z" fill="#ff8928"/>
        <path d="M1841.11,3049.92c-3.65-7.98-15.53-9.82-25.4-10.46-15.92-1.02-32.28-2-47.46,2.13-29.03,7.9-47.55,33.05-54.98,58.59-14.17-34.43-20.79-71.12-19.4-107.53,47.59,10.54,102.92,5.98,137.77-23.57,10.24,23.86,13.31,49.95,8.82,74.99" fill="#ff6a29"/>
        <path d="M1809.58,3263.4c-49.76,0-113.88-11.97-165.02-28.1-14.9-4.7-27.17-15.78-33.65-30.4-6.46-14.56-6.42-31.08.12-45.31,11.73-25.52,38.78-48.44,80.46-68.21l-28.54-192.36c-.87-5.9,2.56-11.58,8.18-13.55l147-51.5c3.74-1.31,7.91-.76,11.18,1.5s5.26,5.95,5.36,9.92c1.4,57.11,10.7,127.5,29.22,220.84,26.4-1.31,51.23,3.98,74.42,10.27,55.02-7.57,103,21.08,126.46,53.33,19.27,26.5,23.69,56.24,11.81,79.56-10.59,20.8-38.17,45.55-109.38,45.95-31.19,8.79-64.93,8.98-102.96.57-13.97,5.21-32.94,7.49-54.65,7.49h-.01ZM1689.05,2905.52l28.41,191.44c.82,5.53-2.15,10.92-7.26,13.19-40.32,17.87-66.8,38.55-76.57,59.82-3.56,7.75-3.56,16.81.01,24.86,3.59,8.1,10.3,14.21,18.41,16.77,79.73,25.15,174.09,34.3,206.06,19.99,2.49-1.11,5.27-1.38,7.92-.76,36.04,8.47,67.43,8.52,95.91.17,1.14-.33,2.31-.5,3.5-.5,46.75,0,78.36-11.5,88.99-32.38,7.54-14.82,3.9-34.88-9.77-53.66-19.38-26.65-59.37-50.28-105.16-43-1.75.28-3.54.19-5.26-.29-24.77-6.83-51.45-12.68-78.81-9.26-6.43.85-12.43-3.49-13.73-9.87-18.41-91.1-28.46-161.35-31.25-219.04l-121.4,42.54v-.02Z" fill="#3b0372"/>
        <path d="M1942.19,3260.16c-5.3,0-10.21-3.42-11.86-8.75-2.04-6.55,1.63-13.52,8.18-15.56,8.64-2.69,29.73-11.14,38.8-31.61,8.98-20.25,2.85-46.57-17.26-74.11-13.76-18.84-31.46-28.75-43.89-33.75-6.37-2.56-9.46-9.8-6.9-16.17,2.57-6.36,9.8-9.45,16.17-6.9,22.14,8.9,41.05,23.48,54.69,42.15,25.58,35.03,32.65,70.14,19.92,98.85-13.21,29.77-42.27,41.57-54.15,45.27-1.23.38-2.47.56-3.69.56v.02Z" fill="#3b0372"/>
        <path d="M1850.56,3233.96c26.93-3.85,31.29-36.4,25.02-59.27-6.94-27.88-29.85-51.18-58.88-56.68,49.96-.4,89.83,53.64,79.12,102.09-3.7,19.25-21.27,37.18-41.22,39.55-17.35,2.63-21.37-22.87-4.04-25.69h0Z" fill="#3b0372"/>
        <path d="M1493.13,2810.5c69.27,75.44,150.95,127.62,194.28,184.45,8.99,11.79,23.59,18.24,38.73,17.24l32.32-2.13c35-2.31,67.06-20.82,84.97-50.08,58.45-95.52,83.43-197.1,81.81-303.5l-65.6-8.27-366.51,162.3h0Z" fill="#fbbc3f"/>
        <path d="M1905.23,2739.4c-64.12-5.16-129.98,29.58-160.4,84.62-30.42,55.03-23.65,127.18,16.49,175.72-8.98,11.32-26.2,13.85-40.27,9.75s-25.71-13.51-36.84-22.78c-59.43-49.53-116.29-101.95-170.28-157,81.61-25.94,163.22-51.89,244.82-77.83,23.33-7.42,47.22-15.12,66.4-30,13.89-10.77,24.68-24.84,38.09-36.16,13.41-11.32,31.1-20.04,48.5-16.69,6.96,19.11,8.15,40.17,3.39,59.94" fill="#ff9022"/>
        <path d="M1723.04,3022.24c-17.19,0-33.25-7.78-43.53-21.25-22.13-29.02-55.7-57.79-91.25-88.25-32.42-27.78-69.17-59.27-102.45-95.51-2.16-2.36-3.06-5.61-2.41-8.75s2.78-5.76,5.71-7.06l366.51-162.29c1.65-.73,3.47-1.01,5.27-.77l65.6,8.27c4.91.62,8.62,4.76,8.7,9.71,1.7,111.85-26.32,215.76-83.27,308.85-19.44,31.77-54.14,52.26-92.8,54.81l-32.32,2.13c-1.26.08-2.52.12-3.76.12h0ZM1509.97,2813.92c29.69,30.99,60.92,57.75,91.23,83.72,36.37,31.16,70.72,60.6,94.12,91.29,6.97,9.14,18.3,14.12,30.17,13.35l32.32-2.13c32.23-2.12,61.07-19.07,77.14-45.35,53.49-87.42,80.53-184.79,80.42-289.54l-54.23-6.84-351.18,155.5h.01Z" fill="#3b0372"/>
        <g>
          <g>
            <polygon points="1242.51 2850.67 1196.71 3126.24 1054.59 3112.95 1040.14 3082.67 1125.69 2760.86 1242.51 2850.67" fill="#ff8928"/>
            <path d="M1222.91,2954.3c-21.09-30.36-61.59-45.79-97.53-37.17-15.08,3.62-28.96,10.94-43.35,16.72,11.51-33.84,19.8-68.77,24.74-104.18,31.41,33.24,81.63,47.35,125.75,35.32-.73,29.41-4.6,58.75-11.54,87.34l1.94,1.96h0Z" fill="#ff6a29"/>
            <path d="M1196.72,3138.67c-.39,0-.78-.01-1.17-.05l-142.13-13.29c-4.35-.41-8.17-3.08-10.06-7.02l-14.44-30.28c-1.27-2.67-1.55-5.69-.8-8.54l85.55-321.81c1.07-4.02,4.08-7.24,8.01-8.57,3.93-1.34,8.28-.62,11.57,1.91l116.82,89.8c3.64,2.8,5.44,7.37,4.69,11.89l-45.8,275.58c-1.01,6.05-6.24,10.39-12.25,10.39h.01ZM1062.76,3101.23l123.59,11.56,42.68-256.81-96.12-73.89-79.58,299.36,9.44,19.79h-.01Z" fill="#3b0372"/>
          </g>
          <g>
            <path d="M896.26,3226.13c25.23,2,49.55-2.05,73.01-13.09,59,29.96,110.3,30.64,154.33,3.56,45.49,19.7,86.91,26.65,121.76,13.33,30.76-11.72,47.08-45.22,34.89-75.87-1.61-4.08-3.49-7.86-5.66-11.53-19.65-34.11-59.83-51.03-100.51-48.95-12.02.57-24.18,2.78-35.77,6.8-41.09-20.45-88.83-28.88-129.79-16.77-15.72,4.67-30.45,12.38-43.4,23.58-66.76-4.22-98.24,23.52-107.98,67.27-.24,1.17-.49,2.24-.55,3.3-3.58,24.23,14.74,46.45,39.68,48.36h0Z" fill="#ff8928"/>
            <path d="M896.26,3226.13c25.23,2,49.55-2.05,73.01-13.09,59,29.96,110.3,30.64,154.33,3.56,45.49,19.7,86.91,26.65,121.76,13.33,30.76-11.72,47.08-45.22,34.89-75.87-1.61-4.08-3.49-7.86-5.66-11.53l-11.3-7.94c6.03,8.82,4.88,21.2-1.03,30.11-5.82,8.9-15.52,14.68-25.69,18.07-35.86,12.01-79.29-6.71-95.19-41.07,1.79,8.79-2.37,18.11-8.88,24.25-6.5,6.23-15.13,9.85-23.8,12.4-20.1,6-41.25,7.21-62.13,8.03-17.9.7-36.19,1.04-53.08-4.56-16.99-5.69-32.54-18.67-36.4-36.15-10.33,19.2-25.93,36.58-46.56,43.66-18.35,6.31-40.96,2.38-53.94-11.56-3.58,24.23,14.74,46.45,39.68,48.36h0Z" fill="#ff6a29"/>
            <path d="M1206.35,3249.27c-24.31,0-51.42-6.25-81.83-18.79-45.41,25.43-97.66,24.18-155.51-3.71-23.15,9.83-47.95,13.78-73.73,11.79-16.31-1.27-31.22-9.51-40.89-22.6-9.41-12.74-12.84-28.86-9.4-44.23,8.34-37.28,35.19-80.46,115.92-77.19,53.06-42.47,125.6-32.33,178.33-7.5,63.25-19.1,130.89,8.2,152.52,62.42,6.91,17.32,6.6,36.26-.87,53.32-7.71,17.62-22.68,31.75-41.06,38.78-13.42,5.14-27.88,7.71-43.48,7.71ZM1123.61,3204.18c1.68,0,3.35.34,4.94,1.02,46.34,20.06,83.1,24.35,112.4,13.15,12.39-4.74,22.04-13.81,27.18-25.54,4.79-10.92,4.98-23.05.55-34.15-19.46-48.76-80.74-62.11-126.35-46.52-3.15,1.08-6.59.85-9.56-.63-47.18-23.49-113.87-34.48-159.52,5.08-2.46,2.14-5.7,3.24-8.92,3.01-54.64-3.43-85.67,15.38-95.09,57.55-1.9,8.46-.07,16.99,5.14,24.04,5.39,7.28,13.71,11.88,22.83,12.59,23.85,1.83,45.71-2.06,66.78-11.98,3.47-1.64,7.5-1.57,10.91.16,54.92,27.86,101.42,29.19,142.19,4.07,1.99-1.22,4.25-1.84,6.52-1.84h0Z" fill="#3b0372"/>
            <path d="M1102.53,3237.19c-3.85,0-7.51-2.25-9.14-6.01-2.17-5.04.15-10.89,5.19-13.07,18.25-7.87,31.16-25.72,35.43-48.96,4.8-26.17-2.54-53.2-18.7-68.87-3.94-3.82-4.04-10.12-.22-14.06,3.83-3.95,10.12-4.03,14.06-.22,21.12,20.48,30.47,53.71,24.42,86.73-5.48,29.89-22.65,53.08-47.1,63.63-1.28.55-2.62.82-3.94.82h0Z" fill="#3b0372"/>
            <path d="M986.39,3230.94c-1.39,0-2.79-.29-4.13-.91-20.59-9.42-35.82-34.72-38.8-64.43-3.22-32.1,8.25-61.02,30.68-77.34,4.44-3.23,10.66-2.25,13.89,2.19,3.23,4.44,2.26,10.65-2.19,13.89-16.66,12.13-25.1,34.29-22.59,59.28,2.26,22.48,13.22,41.9,27.29,48.34,4.99,2.28,7.19,8.18,4.9,13.17-1.67,3.65-5.27,5.81-9.04,5.81h-.01Z" fill="#3b0372"/>
          </g>
        </g>
        <path d="M1762.57,2018.09c44.74,39.77,66.83,99.59,39.77,159.07,347.97,392.71,88.1,874.32-457.34,790.4-43.66,33.5-94.33,53.04-153.33,56.02-41.05,2.07-82.12-8.92-114.65-34.05-68.06-52.58-84.67-148.6-35.26-300.35-31.91-328.14-3.56-598.8,144.16-755.6l109.36-34.8,467.28,119.31h0Z" fill="#fbbc3f"/>
        <path d="M1017.78,2809.35c17.26-32.15,44.7-52.36,69.04-48.7,20.37,3.06,36.07,20.93,45.64,38.19,9.95,17.95,15.95,37.9,26.36,55.58,15.98,27.14,41.35,47.33,60.99,71.96s33.7,58.24,21.69,87.36c40.54-22.71,86.65-35.38,133.1-36.56,31.67-.81,63.22,3.62,94.86,5.26,68.08,3.53,137.02-6.08,200.84-30.05,108.87-40.9,201.02-124.54,252.26-228.95-98.9,82.67-230.31,121.56-359.2,119.63-45.16-.67-91.11-6.33-132.08-25.35-51.06-23.71-91.2-66.98-119.38-115.72-15.65-27.07-28.06-56.3-33.7-87.05-12.41-67.67,10.65-140.83,59.6-189.16,26.58-26.24,59.51-44.94,89.59-67.07s58.58-49.51,70.11-85.04c-76.89,21.18-155.01,37.88-233.83,50.01-19.25,2.96-42.57,4.1-54.25-11.48-8.58-11.44-6.99-27.18-7.97-41.45-2.45-35.6-24.8-69.18-56.69-85.18,4.61,35.31.47,63.4-3.58,81.07-6.91,30.18-11.95,52.16-30.39,64.47-24.14,16.13-46.1-.41-65.7,16.02-14.78,12.39-15.74,34.39-15.52,53.67.37,33.53.75,67.05,1.12,100.58.6,53.51,1.21,107.26,9.64,160.11.42,2.63,2.8,11.06,1.64,22.02-1.51,14.33-7.82,24.38-9.38,27.04-7.02,11.96-13.98,38.01-14.83,98.78h.02Z" fill="#ff9022"/>
        <path d="M1181.94,3036.26c-41.88,0-81.49-12.93-112.52-36.89-74.73-57.73-88.28-162.54-40.28-311.56-17-176.42-15.34-321.25,5.08-442.74,23.21-138.08,69.87-242.75,142.65-320.01,1.45-1.54,3.27-2.68,5.28-3.32l109.36-34.79c2.21-.71,4.58-.78,6.85-.2l467.27,119.3c1.92.49,3.7,1.44,5.18,2.75,51.25,45.56,68.46,108.5,45.99,166.02,159.41,183.59,199.92,404.18,105.52,577.32-46.6,85.46-122.36,152.12-219.09,192.78-101.57,42.7-224.2,55.01-354.94,35.7-45.73,33.82-98.19,52.44-156,55.37-3.46.18-6.92.26-10.36.26h0ZM1192.78,1944.44c-128.47,138.54-173.82,381.82-138.65,743.54.17,1.7-.02,3.42-.55,5.05-45.99,141.25-35.83,235.01,31.05,286.68,28.87,22.3,66.76,33.49,106.42,31.47,54.49-2.75,103.74-20.74,146.39-53.47,2.69-2.06,6.1-2.92,9.45-2.43,248.33,38.23,460.46-44.18,553.62-215.03,90.27-165.55,49.09-378.15-107.47-554.84-3.26-3.68-4.04-8.92-2.01-13.39,26.2-57.58-.27-111-34.52-142.65l-460.84-117.66-102.88,32.73h-.01Z" fill="#3b0372"/>
        <path d="M1804.84,2198.99c-26.51-28.12-49.59-59.15-77.07-86.45,33.84,19.5,64.59,44.39,94.82,69.06,13.53,12.16-5.73,31.11-17.76,17.39h.01Z" fill="#3b0372"/>
        <g>
          <g>
            <g>
              <path d="M172.08,3022.69l351.66-100.91c15.37-4.43,30.01-10.94,43.43-19.14,27.33-16.73,49.9-40.77,64.48-69.92,27.88-55.78,37.01-125.06,52.1-184.14,8.33-32.69,27.36-61,53.21-80.99,15.17-11.75,32.71-20.65,51.83-25.9l309.25-85.14-72.64-75.25-289.6,85.18c-9.81,2.92-19.52,6.32-28.89,10.27-43.94,18.41-82.63,47.95-112.04,85.9-3.18,4.06-7.57,6.71-12.39,7.77-4.55,1-9.42.53-13.9-1.65l-65.12-31.44c-10.67-5.16-22.12-8.12-33.79-8.85-8.96-.56-17.99.16-26.8,2.23l-385.28,90.61c-16.4,3.88-26.25,20.7-21.51,36.85l99.59,344.38c4.49,15.64,20.77,24.62,36.41,20.14h0Z" fill="#9da9b9"/>
              <g opacity=".6">
                <path d="M757.01,2531.14c15.17-11.75,32.71-20.65,51.83-25.9l265.6-73.12,23.59,24.44-309.25,85.14c-19.12,5.25-36.67,14.15-51.83,25.9-10.58,8.18-19.95,17.83-27.98,28.53,9.83-25.9,26.52-48.35,48.04-64.99h0Z" fill="#fff"/>
                <path d="M135.67,3002.55l-99.59-344.38c-4.59-15.65,4.58-31.83,20.09-36.35l99.55,344.27c4.49,15.64,20.77,24.62,36.41,20.14l351.66-100.91c15.37-4.43,30.01-10.94,43.43-19.14,19.89-12.18,37.22-28.26,50.82-47.34-2.03,4.7-4.13,9.35-6.4,13.88-14.57,29.15-37.15,53.19-64.48,69.92-13.42,8.21-28.06,14.72-43.43,19.14l-351.66,100.91c-15.64,4.49-31.92-4.5-36.41-20.14h0Z" fill="#fff"/>
              </g>
              <path d="M560.97,2904.14c2.07-.46,4.15-.91,6.19-1.5,27.33-16.73,49.9-40.77,64.48-69.92,27.88-55.78,37.01-125.06,52.1-184.14,8.33-32.69,27.36-61,53.21-80.99-11.26-13.24-19.8-28.83-24.56-45.4-4.29-14.77-6.05-30.1-5.49-45.44-43.94,18.41-82.63,47.95-112.04,85.9-3.18,4.06-7.57,6.71-12.39,7.77-4.55,1-9.42.53-13.9-1.65l-65.12-31.44c-10.67-5.16-22.12-8.12-33.79-8.85l-.49,1.3c104.73,88.82,143.56,247.18,91.79,374.36h.01Z" fill="#8393a5"/>
              <path d="M163.98,3038.74c-19.25,0-37.03-12.65-42.64-32.03l-99.61-344.38c-3.36-11.63-1.78-24.28,4.32-34.72,6.19-10.59,16.18-17.97,28.13-20.78l385.3-90.63c23.6-5.55,48.63-2.8,70.47,7.74l65.11,31.45c2.77,1.33,6.12.54,8.01-1.88,37.89-48.83,89.27-83.86,148.56-101.31l289.56-85.2c5.32-1.57,11.08-.05,14.94,3.95l72.64,75.24c3.66,3.78,5.04,9.22,3.66,14.29-1.39,5.08-5.35,9.05-10.43,10.44l-309.25,85.15c-46.47,12.79-82.71,49.64-94.58,96.18-4.05,15.89-7.63,32.32-11.41,49.72-10.18,46.79-20.7,95.18-41.77,137.38-23.38,46.81-66.08,82.06-117.17,96.73l-351.64,100.92c-4.07,1.17-8.17,1.72-12.2,1.73h0ZM463.73,2543.22c-5.84,0-11.69.66-17.43,2.01l-385.3,90.63c-3.91.92-7.18,3.34-9.21,6.81s-2.53,7.51-1.42,11.37l99.61,344.38c2.22,7.68,10.31,12.15,17.95,9.93l351.64-100.92c43.09-12.36,79.07-42.03,98.72-81.39,19.4-38.86,29.52-85.39,39.31-130.39,3.67-16.89,7.47-34.35,11.66-50.76,14.51-56.89,58.79-101.93,115.56-117.56l285.03-78.48-48.92-50.68-280.89,82.65c-53.25,15.67-99.39,47.13-133.42,90.99-10.46,13.47-29.18,17.88-44.54,10.44l-65.11-31.45c-10.39-5.02-21.8-7.58-33.25-7.58h0Z" fill="#3b0372"/>
              <path d="M164.98,2737.57l231.28-55.58c13.97-3.36,22.25-17.75,18.12-31.51l-5.51-18.37c-3.82-12.76-16.97-20.29-29.91-17.12l-230.97,56.5c-13.9,3.4-22.12,17.74-18.04,31.45l5.2,17.45c3.79,12.75,16.9,20.3,29.83,17.19h0Z" fill="#3b0372"/>
              <path d="M196.33,2843l231.48-55.56c13.97-3.35,22.25-17.76,18.13-31.52l-7.34-24.47c-3.81-12.71-16.89-20.24-29.79-17.15l-231.48,55.39c-13.96,3.34-22.26,17.72-18.16,31.47l7.33,24.64c3.79,12.75,16.89,20.3,29.82,17.19h0Z" fill="#3b0372"/>
              <path d="M226.3,2941.34l229.75-62.02c13.6-3.67,21.49-17.85,17.45-31.35l-3.33-11.08c-3.81-12.71-16.89-20.23-29.79-17.15l-231.68,55.44c-13.96,3.34-22.26,17.72-18.16,31.48l5.26,17.67c3.87,13,17.4,20.55,30.5,17.02h0Z" fill="#3b0372"/>
            </g>
            <path d="M1050.43,2492.75l66.23-20.71,322.49-100.88,108.51-33.92c20.42-6.38,31.83-28.17,25.39-48.57l-19.8-63.34c-6.38-20.42-28.09-31.78-48.57-25.39l-158.52,49.6-309.95,96.94-28.75,8.98c-20.42,6.38-31.77,28.16-25.39,48.57l19.8,63.35c6.38,20.42,28.16,31.77,48.57,25.39v-.02Z" fill="#f9744f"/>
            <polygon points="1116.66 2472.04 1439.14 2371.16 1346.15 2249.52 1036.2 2346.46 1116.66 2472.04" fill="#e05838"/>
            <path d="M1038.79,2509.46c-8.56,0-17.04-2.07-24.83-6.15-12.7-6.65-22.06-17.85-26.34-31.53l-19.81-63.31c-8.83-28.25,6.96-58.42,35.21-67.26l497.21-155.53c13.68-4.29,28.22-2.98,40.92,3.67,12.71,6.65,22.06,17.85,26.34,31.53l19.8,63.31h0c4.28,13.69,2.97,28.22-3.67,40.92-6.65,12.71-17.85,22.06-31.53,26.34l-497.21,155.53c-5.29,1.65-10.7,2.48-16.09,2.48ZM1516.25,2213.06c-2.35,0-4.75.35-7.1,1.09l-497.21,155.53c-12.55,3.93-19.57,17.33-15.65,29.88l19.81,63.31c3.93,12.56,17.35,19.56,29.89,15.65l497.21-155.53c6.08-1.9,11.06-6.06,14.01-11.7,2.95-5.65,3.53-12.1,1.63-18.18l-19.8-63.31c-3.19-10.19-12.62-16.73-22.78-16.73h0Z" fill="#3b0372"/>
          </g>
          <g>
            <path d="M1484.88,2408.12c-.75,2.53-2.04,5.02-3.83,7.21-17.45,21.28-44.29,29.43-76.41,30.27-16.45,25.6-35.64,49.66-57.42,72.23-7.85,8.2-17.99,14.07-29.13,16.35-53.99,10.94-104.29,2.53-152.06-18.99-67.11,37.93-134.81,58.76-203.81,39.77l-4.97,44.74c-37.13-19.98-66.06-52.84-89.48-94.45-12.93,17.1-31.37,30.52-52.2,42.25-13.72-61-8.75-145.4,12.88-231.55,48.67-194.57,181.89-397.88,374.87-360l-69.59,139.19c8,52.49,8.2,115.82,4.97,183.93h29.83c56.12-84.16,134.22-128.75,151.57-88.24,2.09,4.87,1.59,10.49-.99,15.11l-26.3,48.27c36.74,45.93,128.6,83.36,185.47,131.88,6.56,5.57,8.9,14.27,6.61,22.02h-.01Z" fill="#fbbc3f"/>
            <path d="M1058.22,2281.06c9.86-11.05,21.69-20.25,34.38-27.89,15.3-9.21,31.91-16.21,49.18-20.74l-.88,48.22c-2.69-.05-5.38-.1-8.07-.16-4.78-.09-9.56-.19-14.35-.28-15.12-.3-30.35-.58-45.26,1.97-4.13.71-8.22,1.63-12.31,2.55" fill="#ff9022"/>
            <path d="M1484.88,2408.12c-.75,2.53-2.04,5.02-3.83,7.21-17.45,21.28-44.29,29.43-76.41,30.27-16.45,25.6-35.64,49.66-57.42,72.23-7.85,8.2-17.99,14.07-29.13,16.35-53.99,10.94-104.29,2.53-152.06-18.99-67.11,37.93-134.81,58.76-203.81,39.77l-4.97,44.74c-37.13-19.98-66.06-52.84-89.48-94.45-12.93,17.1-31.37,30.52-52.2,42.25-13.72-61-8.75-145.4,12.88-231.55.94-1.34,1.89-2.68,2.88-4.03l4.13-9.3c-12.63,52.79,10.79,112.25,55.97,142.37,26.89,17.9,59.26,25.45,91.07,31.12,45.24,8,92.51,12.68,136.55-.3,9.69-2.88,19.44-6.61,29.53-6.36,9.35.2,18.19,3.73,27.09,6.61,68.85,22.37,149.58,2.78,200.48-48.72,3.23-3.23,6.86-6.81,11.38-6.96,3.63-.1,6.81,2.04,9.94,3.83,27.89,16.21,66.86,8.4,87.39-16.11l.02.02Z" fill="#ff9022"/>
            <path d="M1201.41,1965.71c-262.98-49.59-415.82,371.51-373.85,579.1l-18-8c18.83-10.63,36.36-23.06,48.4-38.98,5.12-7.07,16.43-6.21,20.54,1.38,20.41,36.29,47.81,69.85,84.61,89.6l-18.14,9.52s4.96-44.75,4.96-44.78c.76-7.5,8.36-12.6,15.58-10.52,66.7,18.96,135.71-5.27,194.42-38.65,3.55-2.01,7.74-2.05,11.21-.51,20.58,9.3,42.09,16.25,64.12,19.92,22.01,3.73,44.5,4.03,66.61.91,10.03-1.47,20.08-2.58,28.56-8.34,8.86-5.94,15.5-14.74,22.76-22.43,15.25-17.17,29.24-35.42,41.67-54.66,2.15-3.34,5.8-5.21,9.49-5.32,25.42-.61,52.05-6.1,68.29-26.43,2.7-3.57,2.09-9.28-1.29-12.36l-.48-.47-1.01-.82-8.06-6.58c-33.79-26.41-71.12-46.69-107.67-70.01-25.13-16.25-50.09-32.61-69.72-56.34-2.8-3.47-3.06-8.17-1.04-11.86,5.09-9.3,19.34-35.22,24.34-44.34l2.03-3.7c.39-.71.57-1.15.76-1.76.91-2.7-.29-5.03-1.69-7.16-2.92-4.4-6.8-5.89-12.86-5.91-30.02,2.9-56.09,26.81-77.81,47.65-15.29,15.49-29.05,32.62-41.27,50.77-1.91,2.88-5.13,4.45-8.34,4.46l-29.83-.08c-5.68.1-10.31-4.75-9.93-10.42.94-15.26,1.63-30.52,2.29-45.77,1.5-30.52,2.62-60.99,2.9-91.56.26-15.31-.02-30.63-.23-46.12,4.37,14.88,7.2,30.15,9.6,45.47,6.72,45.99,7.05,92.6,5.31,138.93l-9.93-10.42,29.83-.08-8.34,4.46c23.85-38.39,107.52-133.45,157.71-101.86,12.33,8.51,18.34,26.21,10.45,39.53l-2.01,3.71-8.04,14.82-16.07,29.65-1.04-11.85c17.33,20.77,41.57,36.47,64.68,51.22,39.46,24.89,82.17,47.56,118.63,77.79,13.37,10.04,16.84,30.42,6.84,44.14-19.71,26.75-55.16,36.07-86.39,36.6l9.51-5.36c-12.99,20.35-27.61,39.62-43.51,57.71-8.63,9.41-16.7,19.74-27.5,26.77-11.18,7.7-25.13,10.43-38.23,12.16-48.83,7.47-99.63-1.81-144.29-22.02l11.21-.51c-62.93,36.34-140.42,61.92-213.21,40.89l15.59-10.57-4.99,44.74c-.74,8.54-10.72,13.72-18.15,9.52-20.74-11.17-39.08-26.27-54.64-43.37-15.6-17.12-28.56-36.16-39.7-55.92l20.54,1.38c-14.93,19.63-35.1,33.72-55.99,45.53-6.94,4.19-16.46-.05-18-8-39.99-197.91,83.1-549.64,297.15-602.44,34.2-8.54,70.29-8.47,104.48-1.57,5.38,1.08,8.86,6.33,7.78,11.71-1.07,5.34-6.27,8.8-11.61,7.8h.01Z" fill="#3b0372"/>
            <path d="M1142.53,2289.77c-34.44-.25-68.81-3.43-103.3-2.24-11.52.46-23.13.66-34.75,1.48,33.81-8.43,68.64-12.89,103.38-16.17,11.63-1.15,23.29-1.94,34.98-2.95,5.49-.47,10.31,3.59,10.78,9.07.6,6.27-4.91,11.43-11.1,10.81h.01Z" fill="#3b0372"/>
          </g>
        </g>
        <path d="M1184.07,1960.02c65.76,56.45,148.26,93.16,234.22,104.22,28.45,3.66,57.18,4.57,85.86,4.51,69.79-.17,143.31-7.41,200.56-47.33-21.12-12.56-45.29-19.95-69.82-21.36-15.74-.9-31.6.61-47.25-1.34-13.05-1.63-25.67-5.64-38.45-8.71-25.1-6.03-50.91-8.45-76.62-10.86-76.68-7.17-153.36-14.34-230.04-21.51-19.31-1.81-39.59-3.47-57.38,4.27" fill="#ff9022"/>
        <path d="M1368.06,2983.32c-17.99-4.51-35.84-9.7-53.2-16.16-17.32-6.48-34.28-14.25-49.4-24.46,25.35,5.65,53.75,8.98,79.59,12.22,9.51,1.31,19.1,2.24,28.51,4.22,16.25,3.8,10.82,27.78-5.51,24.18h.01Z" fill="#3b0372"/>
        <g>
          <path d="M2567.88,2013.12c-22.38-85.04,261.54-274.87,419.92-250.15,29.1,4.54,54.14,22.92,68.88,48.42,25.8,44.66,36.65,92.68,35.25,139.25-3.94,132.16-108.24,237.76-239.52,253.43-118.43,14.13-232.37-41.93-284.53-190.95h0Z" fill="#9da9b9"/>
          <g opacity=".6">
            <path d="M2568.46,2014.69c23.54-91.94,274.16-249.53,419.33-226.87,29.1,4.54,54.14,22.92,68.88,48.42,22,38.08,33.09,78.6,35.03,118.59.06-1.4.18-2.78.23-4.19,1.39-46.57-9.45-94.6-35.25-139.26-14.74-25.5-39.77-43.88-68.88-48.42-158.38-24.72-442.3,165.11-419.92,250.15.19.54.39,1.04.58,1.57h0Z" fill="#fff"/>
          </g>
          <path d="M3056.67,1811.39c-3.96-6.85-8.68-13.17-14.01-18.86,17.97,38.55,25.59,78.96,24.41,118.35-3.94,132.16-108.24,237.76-239.52,253.43-90.32,10.78-177.99-19.33-237.68-100.31,58.32,110.88,158.7,152.47,262.53,140.08,131.29-15.67,235.58-121.27,239.52-253.43,1.39-46.57-9.45-94.6-35.25-139.26Z" fill="#8393a5"/>
          <path d="M2817.13,2216.15c-118.96,0-214.14-72.58-258.64-199.74-.09-.25-.16-.5-.23-.76-6.35-24.12,6.85-55.2,38.15-89.89,75.45-83.61,266.01-192.41,392.92-172.61,31.55,4.93,59.24,24.34,75.95,53.27,25.44,44.04,38.09,94.01,36.58,144.53-1.96,65.83-28.52,128.68-74.76,176.98-45.54,47.56-107.17,78.1-173.52,86.02-12.37,1.47-24.53,2.2-36.44,2.2h0ZM2577.4,2010.23c46.4,132.14,146.17,199.2,273.82,183.97,129.96-15.5,227.01-118.06,230.76-243.85,1.4-46.82-10.33-93.15-33.93-133.98-13.69-23.7-36.22-39.58-61.8-43.57-109.31-17.07-294.53,77.03-375.09,166.29-26.03,28.84-38.01,54.08-33.77,71.15h.01Z" fill="#3b0372"/>
          <path d="M3019.84,1857.67c-.1,4.72-.6,9.5-1.49,14.27-21.13,112.4-257.3,237.52-364.53,180.7-.35-.2-.75-.4-1.09-.6-4.62-2.53-8.8-5.62-12.38-9.1-18.84-18.15-23.02-47.57-8.35-71.09,53.79-86.25,244.38-177.47,347.58-161.86,19.59,2.98,34.8,17.5,39.07,36.04.85,3.73,1.29,7.61,1.19,11.63h0Z" fill="#9da9b9"/>
          <path d="M3018.35,1871.94c-21.13,112.4-257.3,237.52-364.53,180.7,1.19-7.26,3.83-14.47,8-21.13,53.79-86.25,244.38-177.47,347.58-161.86,3.08.45,6.11,1.24,8.95,2.29h0Z" fill="#72818e"/>
          <path d="M2718.73,2076.89c-25.71,0-49.98-4.77-70.77-16.12-5.4-2.96-10.28-6.55-14.54-10.69-22.76-21.93-26.83-56.27-9.86-83.48,57.55-92.27,251.31-182.51,357.51-166.43,23.43,3.57,41.98,20.69,47.27,43.63,1.07,4.72,1.55,9.45,1.45,14.08-1.29,64.52-70.51,127.41-134.86,164.74-49.48,28.7-116.69,54.26-176.19,54.26h0ZM2954.25,1818.16c-101.9,0-264.59,80.03-313.81,158.96-11.95,19.17-9.15,43.29,6.81,58.66,3.01,2.93,6.45,5.45,10.26,7.54,57.69,31.5,155.8,3.66,227.43-37.9,75-43.51,124.05-101.58,124.96-147.95v-.04c.07-3-.24-6.1-.95-9.19-3.44-14.91-15.56-26.07-30.87-28.41-7.46-1.13-15.45-1.67-23.83-1.67h0Z" fill="#3b0372"/>
        </g>
        <path d="M2202.4,2174.53c-.84,16.85-7.85,32.96-19.64,44.89,0,.05-.05.1-.15.15-.75.75-1.49,1.49-2.29,2.19-48.52,44.24-113.39,74.02-179.16,64.77v-44.74c1.54-12.33,4.23-24.06,7.8-35.05,19.59-59.8,66.51-96.24,106.53-74.32,9.34-15.51,30.27-27.19,50.75-27.69,19.14-.45,34.75,15.26,35.99,34.3.75,11.63.75,23.46.15,35.49h.02Z" fill="#fbbc3f"/>
        <path d="M2202.55,2167.62c.1,18.84-7.9,36.94-19.78,51.8,0,.05-.05.1-.15.15-.75.75-1.49,1.49-2.29,2.19-48.52,44.24-113.39,74.02-179.16,64.77v-44.74c1.54-12.33,4.23-24.06,7.8-35.05l5.32-5.87c-3.88,7.85-2.19,17.7,2.88,24.81,5.12,7.11,13.22,11.63,21.67,13.77,17.75,4.57,37.13-.84,51.8-11.88,14.61-10.99,24.81-27.09,31.27-44.24-.15,9.25,7.11,17.5,15.86,20.53,8.7,3.03,18.44,1.69,27.09-1.54,16.4-6.07,30.22-18.84,37.68-34.7h0Z" fill="#ff9022"/>
        <path d="M2001.18,2241.79c-.85-31.61,8.22-63.7,27.18-89.7,19.49-28.23,59.12-48.71,91.94-28.38l-13.31,3.6c20.23-34.99,81.26-49.73,101.51-7.39,3.49,6.72,5.05,15.28,5.21,22.57.47,10.73.41,21.71-.2,32.38-1.14,30.36-19.58,52-43.21,68.79-20.61,15.76-43.43,28.65-67.73,37.84-31.99,12.02-68.73,15.95-101.39,5.02,16.96-.79,33.23-2.82,49.04-6.39,43.36-9.74,83.5-30.88,116.58-60.45,23.85-18.32,26.19-42.08,24.68-70.07l-.25-6.01c.26-10.74-5.08-21.34-14.91-25.7-18.23-6.91-42.06,4.98-52.27,19.63-2.95,4.45-8.69,5.83-13.31,3.6-55.42-23.99-97.86,56.24-109.54,100.65h-.02Z" fill="#3b0372"/>
        <path d="M2113.55,2122.58c27.58,20.91,6.11,82.25-3.01,109.27,4.41-25.73,7.95-52.76,2.86-78.17-1.63-7.81-5.69-14.88-9.24-15.67-5.05-1.12-8.23-6.13-7.11-11.18,1.95-7.84,10.85-9.46,16.5-4.25h0Z" fill="#3b0372"/>
        <path d="M1547.45,2027.4c357.09,54.52,576.03-167.23,455.25-343.76,222.98-464.54,69.68-687.52-196.34-849.35l-217.1-28.63-441.31,92.91-171.88,148.65c-236.92,376.28-171.88,831.53,339.11,952.31,11.61,6.97,232.27,27.87,232.27,27.87h0Z" fill="#fbbc3f"/>
        <path d="M1646.26,1961.05s-208.13-24.18-219.09-32.24c-421.45-122.16-521.28-540.12-390.32-934.16l-60.79,52.58c-236.92,376.28-171.88,831.53,339.11,952.31,11.61,6.97,232.27,27.87,232.27,27.87,222.54,33.98,391.41-39.35,457.85-142.16-81.45,67.6-206.95,104.29-359.04,75.81h0Z" fill="#ff9022"/>
        <path d="M1315.18,1999.53c-203.33-24.96-398.37-167.03-459.22-367.27-46.88-149.54-23.15-313.28,37.49-455.23,20.14-47.53,44.44-93.2,72.2-136.58.64-1,1.44-1.9,2.3-2.63l171.88-148.65c1.64-1.42,3.59-2.34,5.57-2.76l441.31-92.91c1.4-.3,2.84-.33,4.19-.16l217.1,28.63c73.54,40.97,142,94.77,199,158.58,184.55,208.33,116.32,481.75,6.92,708.47,0,.01-.95-12.4-.95-12.39,83.52,121.59,8.85,252.69-110.17,312.8-81.94,42.25-175.05,57.25-266.02,51.78-30.2-1.79-60.05-7.05-89.32-13.81,144.51,9.07,305.99-2.85,414.85-108.03,64.68-63.49,83.01-151.49,30.14-228.71-2.55-3.81-2.74-8.52-.95-12.4,52.02-110.06,95.38-226.13,104.45-347.99,18.37-226.16-111.73-374.93-296.05-485.36l4.84,1.7-217.1-28.63c21.29-2.95-441.76,93.42-437.12,92.75l5.57-2.76-171.88,148.65,2.39-2.78c-52.45,85.18-92.88,178.27-113.78,276.14-61.7,283.74,65.03,522.94,336.22,628.13,19.28,8.7,42,16.62,61.45,24.68,15,5.12,29.92,10.71,44.71,16.74h-.02Z" fill="#3b0372"/>
        <g>
          <path d="M1647.32,1653.45c27.32-11.3,54.58-18.01,81.78-18.97,14.14-.5,28.07,4.94,37.73,15.27,30.26,32.35,34.52,79.86,19.85,138.42l-27.87-23.23c-37.38,13.03-75.14,20.09-113.41,19.11-19.97-.51-37.75-12.97-45.13-31.53-11.12-27.99-19.68-55.63-24.95-82.81-1.77-28.66,27.87-41.81,72-16.26Z" fill="#ff8928"/>
          <path d="M1786.68,1797.46c-2.14,0-4.25-.74-5.95-2.15l-23.86-19.89c-38.8,12.99-75.41,18.85-111.71,17.92-23.73-.6-44.74-15.28-53.52-37.39-11.74-29.55-20.3-57.97-25.44-84.47-.08-.4-.13-.79-.15-1.19-.91-14.62,4.95-26.95,16.07-33.83,15.9-9.83,39.73-7.36,65.84,6.71,27.79-11.02,54.96-17.06,80.81-17.97,17.23-.59,33.46,6.04,44.84,18.2,30.83,32.97,38.26,82.44,22.08,147.02-.78,3.1-3.1,5.59-6.13,6.58-.94.31-1.92.46-2.88.46h0ZM1584.57,1668.57c4.93,25.2,13.12,52.28,24.34,80.52,6.03,15.19,20.45,25.26,36.73,25.68,35.66.9,71.61-5.18,110.12-18.6,3.08-1.07,6.5-.45,9,1.64l16.22,13.52c10.33-51.38,3.43-89.17-20.93-115.22-7.72-8.25-18.95-12.75-30.61-12.33-24.93.88-51.36,7.02-78.55,18.27-2.68,1.11-5.71.9-8.2-.54-25.03-14.49-42.63-14.27-50.78-9.23-6.42,3.97-7.57,10.95-7.33,16.31v-.02Z" fill="#3b0372"/>
          <path d="M1617.24,1690.73c2.93,15.09,6.88,29.95,12.23,44.5,4.58,12.46,16.61,20.78,29.89,20.51,26.15-.54,51.6-3.51,76.23-9.38-36.61-24.87-72.64-46.56-107.83-63.6-5.47-2.65-11.67,2.02-10.52,7.98h0Z" fill="#3b0372"/>
          <path d="M1658.72,1760.39c-14.96,0-28.4-9.39-33.61-23.56-5.21-14.15-9.27-28.94-12.43-45.22h0c-.86-4.46.84-8.96,4.45-11.74,3.65-2.81,8.5-3.31,12.65-1.3,33.53,16.24,69,37.15,108.42,63.94,1.52,1.03,2.29,2.87,1.96,4.68-.33,1.81-1.7,3.25-3.5,3.68-24.15,5.76-50.13,8.96-77.21,9.51-.24,0-.48.01-.73.01ZM1621.8,1689.85c3.07,15.78,7,30.1,12.03,43.78,3.93,10.67,14.09,17.84,25.43,17.47,22.52-.46,44.25-2.8,64.74-6.94-35.47-23.66-67.71-42.42-98.27-57.22-1.4-.67-2.52-.02-2.94.3-.39.3-1.28,1.16-.99,2.61h0Z" fill="#3b0372"/>
          <path d="M1728.19,1735.99c16.3,8.78,33.14,17.21,46.61,30.26,8.15,8.65-4.13,21.2-12.97,13.28-12.61-11.64-26.93-22.08-41.5-32.23-7.29-5.34.29-16.16,7.85-11.31h.01Z" fill="#3b0372"/>
        </g>
        <g>
          <g>
            <path d="M1599.75,1487.33c-.19,10.5-1.39,21.32-3.72,32.24-14.63,69.03-67.41,116.28-117.85,105.59-50.5-10.68-79.58-75.3-64.94-144.33,11.06-52.12,43.85-91.84,81.02-103.55,12.03-3.86,24.53-4.69,36.88-2.09,7.48,1.58,14.54,4.37,21,8.18,11.33,11.57,22.07,23.13,31.73,33.91,10.68,19.37,16.44,43.76,15.89,70.05h-.01Z" fill="#3b0372"/>
            <ellipse cx="1537.1" cy="1469.12" rx="45.67" ry="30.46" transform="translate(-218.66 2668.41) rotate(-78.04)" fill="#fff"/>
            <g opacity=".2">
              <ellipse cx="1461.58" cy="1534.86" rx="30.9" ry="16.87" transform="translate(-342.85 2646.65) rotate(-78.04)" fill="#fff"/>
            </g>
          </g>
          <path d="M1690.2,1470.88s-3.76,46.13-38.7,42.41c-15.75-1.81-32.56-9.1-51.75-25.97-7.48-6.55-15.33-14.59-23.65-24.3-2.79-3.25-5.53-6.41-8.27-9.57-8.92-10.27-17.7-20.02-26.29-29.22-16.68-17.88-32.52-33.63-47.29-46.96-26.11-23.69-48.68-39.77-65.82-46.64,0,0,56.63-9.57,98.44,28.06,8.59,8.04,17.09,16.35,25.27,24.67,11.33,11.57,22.07,23.13,31.73,33.91,7.8,8.64,14.86,16.77,21.09,24.02,39.44,46.18,55.28,40.42,81.53,30.94l3.72-1.35h0Z" fill="#3b0372"/>
        </g>
        <g>
          <path d="M1977.66,1645.83c-22.95,63.22-72.33,97-110.33,75.44s-50.22-90.26-27.27-153.48c3.21-8.87,6.97-17.19,11.15-24.81.51-.97,1.02-1.95,1.58-2.88,5.62-9.85,11.94-18.58,18.77-25.97,8.55,0,20.72-4.74,40.42-17.09,4.88-3.07,10.22-6.36,15.93-9.8,1.63-.37,3.25-.65,4.92-.97,5.99.84,11.94,2.83,17.56,6.04,3.62,2.09,7.01,4.55,10.17,7.43,4.92,4.51,9.24,9.94,12.91,16.12,18.77,31.36,21.51,82.22,4.18,129.98h0Z" fill="#3b0372"/>
          <ellipse cx="1902.15" cy="1563.05" rx="43.85" ry="25.24" transform="translate(-100.7 2994.79) rotate(-74.97)" fill="#fff"/>
          <g opacity=".2">
            <ellipse cx="1920.34" cy="1659.8" rx="29.58" ry="14.02" transform="translate(-230.5 3007.57) rotate(-72.91)" fill="#fff"/>
          </g>
        </g>
        <path d="M2064.53,1456.67c-13.15.65-33.49,7.43-59.18,19.6-13.52,6.32-28.57,14.21-44.78,23.46-1.16.65-2.32,1.35-3.48,2-9.06,5.16-18.49,10.78-28.2,16.77-2.97,1.86-5.95,3.72-9.01,5.62,0,0-.05,0-.05.05-9.1,5.67-17.19,10.08-24.44,13.38-4.32,2-8.41,3.53-12.17,4.74-12.45,3.99-22.02,4.09-29.78,1.62-.79-.28-1.53-.56-2.23-.93-19-9.29-2.74-46.64-2.74-46.64l1.67,2.28c6.32,8.69,11.24,15.52,21.42,15.52,8.55,0,20.72-4.74,40.42-17.09,4.88-3.07,10.22-6.36,15.93-9.8,2.23-1.39,4.55-2.79,6.92-4.18,10.36-6.18,21.69-12.73,33.4-19.09,8.46-4.6,17.05-9.06,25.64-13.24,41.02-19.23,70.66,5.94,70.66,5.94h0Z" fill="#000072"/>
        <g>
          <path d="M1885.91,319.15c-.37,8.83-.98,17.7-1.86,26.62-1.16,12.12-6.13,23.6-14.31,32.61-67.41,74.05-179.41,145.77-187.58,204.3l-812.95,264.79c-37.3,34.19-76.74,60.39-120.78,69.68-63.83,3.95-128.03.84-192.51-8.31-25.32-3.62-48.82-15.38-66.43-33.96-119.62-126.21-50.22-305.85,96.35-361.88,9.38-135.65,168.91-282.39,276.21-299.77,22.25-3.62,42.27-1.67,58.25,7.11C1165.08,21.75,1408.92-32.41,1563.33,56.27c.88.42,1.81.98,2.69,1.49,1.21-.05,2.37-.09,3.53-.09,105.78-3.2,189.95,17.7,258.1,56.44,14.4,8.22,25.64,21.09,31.64,36.56,21.23,54.58,29.13,110.84,26.62,168.49h0Z" fill="#fff"/>
          <path d="M1885.91,319.15c-.37,8.83-.98,17.7-1.86,26.62-1.16,12.12-6.13,23.6-14.31,32.61-67.41,74.05-179.41,145.77-187.58,204.3l-812.95,264.79c-37.3,34.19-76.74,60.39-120.78,69.68-63.83,3.95-128.03.84-192.51-8.31-25.32-3.62-48.82-15.38-66.43-33.96-119.62-126.21-50.22-305.85,96.35-361.88,9.38-135.65,168.91-282.39,276.21-299.77v.74c-54.86,85.52-15.61,203.7,54.68,277.05,20.3,21.18,44.13,40.74,72.7,47.34,28.76,6.6,58.67-.6,87.1-8.55,65.22-18.12,129.42-40,192.23-65.45,89.98-36.47,180.98-83.66,235.24-164.22,54.21-80.55,57.74-202.45-15.93-265.72,24.67,8.64,49.8,15.93,75.26,21.83,2.04.51,4.14.98,6.23,1.39,50.12,11.24,101.5,17,152.93,17.14-63.55,35.96-119.48,92.68-135.51,163.94-16.07,71.21,18.44,155.85,87.24,180.24,54.68,19.42,117.3-2.23,160.87-40.51,19.69-17.33,36.28-37.54,50.82-59.32v.02Z" fill="#dfe8f4"/>
          <path d="M694.02,931.23c-45.74,0-92.57-3.38-139.83-10.11-28.32-4.03-54.49-17.42-73.7-37.68-54.63-57.65-75.54-129.82-58.85-203.23,17.53-77.12,75.62-143.89,152.51-175.92,12.06-111.23,115.49-224.03,209.13-275.11,53.72-29.31,101.32-37.46,135.32-23.42C1158.36,13.58,1406.69-47.73,1569.18,45.22c103.82-3.14,190.39,15.88,264.59,58.09,16.92,9.62,30.09,24.84,37.1,42.87,24.21,62.24,32.56,127.92,25.53,200.8-1.43,14.83-7.63,28.96-17.47,39.77-23.84,26.19-52.91,51.87-81.01,76.71-48.54,42.9-98.74,87.26-103.45,120.95-.66,4.71-3.95,8.62-8.46,10.09l-810.4,263.96c-43.68,39.62-83.33,62.16-124.61,70.85-.6.12-1.2.21-1.8.24-18.18,1.12-36.59,1.67-55.18,1.67h0ZM882.23,223.94c-24.21,0-54.31,9.2-87.05,27.06-91.3,49.81-189.93,161.75-196.93,262.86-.33,4.83-3.44,9.02-7.96,10.75-72.81,27.84-128.15,89.57-144.41,161.11-14.78,65.05,3.92,129.19,52.65,180.62,15.37,16.21,36.38,26.93,59.17,30.17,64.48,9.19,128.08,11.97,189.06,8.29,37.07-8.02,73.34-29.17,114.07-66.49,1.31-1.2,2.86-2.1,4.55-2.65l806.07-262.55c10.66-40.47,59.01-83.2,110.02-128.27,27.61-24.4,56.16-49.63,79.09-74.82,6.25-6.87,10.2-15.9,11.12-25.43,6.65-68.92-1.19-130.88-23.96-189.41-4.94-12.71-14.26-23.46-26.22-30.27-70.95-40.35-154.43-58.22-255.03-54.74-2.37.07-4.7-.51-6.74-1.71-154.62-90.98-396.65-29.08-631.58,161.53-3.93,3.18-9.4,3.68-13.82,1.24-8.87-4.88-19.72-7.29-32.1-7.29h0ZM1682.16,582.69h.05-.05Z" fill="#3b0372"/>
          <path d="M1817.67,837.21c-.23.32-.51.65-.79.97-368.94,23.69-645.62,110.42-864.04,236.92-46.5,24.2-69.68-27.87-32.52-97.55-42.27-75.91-92.21-144.89-157.94-199.75,70.75-90.91,156.55-163.94,252.94-220.05,174.53-101.55,383.85-147.54,601.53-143.12,16.26.33,30.15,11.75,33.59,27.64,24.9,115.07,66.85,222.05,124.64,321.6,41.58,23.23,64.34,47.24,42.6,73.35h-.01Z" fill="#fff"/>
          <path d="M1817.67,837.21c-.23.32-.51.65-.79.97-368.94,23.69-645.62,110.42-864.04,236.92-46.5,24.2-69.68-27.87-32.52-97.55-42.27-75.91-92.21-144.89-157.94-199.75,70.75-90.91,156.55-163.94,252.94-220.05,28.2,97.41,56.44,194.83,84.64,292.29,4.83,16.58,9.99,33.82,21.56,46.69,28.1,31.17,78.18,22.95,118.64,11.71,81.94-22.72,163.61-47.43,247.6-60.95,62.94-10.13,126.77-13.94,190.46-17.75,25.5-1.49,51.05-3.02,76.6-2,21.14.88,42.55,3.62,62.85,9.48h0Z" fill="#dfe8f4"/>
          <path d="M931.19,1093.57c-10.57,0-20-3.79-27.44-11.3-20.14-20.34-19.03-60.87,2.46-104.47-46.48-82.29-94.83-142.93-151.81-190.48-5.14-4.29-5.96-11.89-1.84-17.18,97.47-125.22,225.38-220.7,380.17-283.8,145.74-59.41,308.57-87.74,484.38-84.18,22.11.45,40.82,15.84,45.49,37.43,23.93,110.74,64.81,216.73,121.54,315.09,33.38,19.09,50.5,36.83,53.78,55.7,2.17,12.48-1.75,24.57-11.67,35.95-2.18,2.5-5.26,4.03-8.57,4.24-342.41,22-623.27,98.96-858.61,235.27-.16.09-.33.18-.49.27-9.56,4.98-18.84,7.45-27.38,7.45h-.01ZM952.84,1075.1h.05-.05ZM779.54,776.1c56.72,49.46,105.12,111.89,151.63,195.4,2.06,3.69,2.1,8.17.11,11.9-20.79,38.98-20.7,70.46-9.87,81.4,6.76,6.82,17.52,3.48,25.45-.6,237.39-137.43,519.96-215.32,863.61-238.05,3.45-5.27,3.39-8.99,2.96-11.48-1.34-7.66-10.13-20.82-44.41-39.96-1.95-1.09-3.57-2.68-4.69-4.61-58.91-101.43-101.31-210.85-126.02-325.24-2.22-10.29-11.14-17.62-21.7-17.83-9.7-.2-19.4-.29-29.01-.29-341.46,0-627.07,123.36-808.05,349.37h-.01Z" fill="#3b0372"/>
          <path d="M863.9,890.06c210.27-178.79,482.84-279.13,757.87-288.79-135.25,17.56-269.68,45.14-396.07,96.75-125.92,50.76-242.83,122.55-345.7,210.98-12.56,10.42-28.61-7.89-16.1-18.94h0Z" fill="#3b0372"/>
          <path d="M599.29,503.31c-.7,14.28-3.79,29.73-6.38,43.82l-3.64,22.2-3.42,22.65c-6.97-29.52-10.29-60.32-11.28-91.2-.11-16.39,23.9-17.18,24.85-.8.07.62-.12,2.67-.12,3.33h0Z" fill="#3b0372"/>
          <path d="M920.12,209.16c12.53,11.93,23.81,26.94,28.07,43.71-11.55-12.25-27.07-17.94-41.51-25.52-14.48-9,.57-29.38,13.44-18.18h0Z" fill="#3b0372"/>
          <path d="M1558.25,39.27c22.37,16.61,46.96,37.08,54.23,64.94-12.79-15.98-30.64-24.98-48.75-33.24-6.83-3.39-13.77-7.11-19.89-11.74-13.01-9.81.97-29.23,14.4-19.96h.01Z" fill="#3b0372"/>
          <path d="M658.2,726.15c-21.64-.12-55.34,33.08-27.83,50.13,16.78,10.4,46.89.25,65.14-.38,16.6-.57,33.39.05,49.41,4.88,11.72,3.53,19.76,10.01,31.96,10.85,4.27.29,5.96-4.53,4.47-7.78-9.18-19.94-38.6-24.27-58.53-26.22-15.38-1.5-30.92-.63-46.28.7-8.16.7-20.32,3.98-28.43,2.97-2.34.16-4.69.32-7.03.48-.74-17.1,5.23-26.98,17.92-29.64,3.17-1.09,2.76-5.97-.81-5.99h.01Z" fill="#3b0372"/>
          <path d="M883.73,490.41c-6.11-15.25-19.82-22.72-32.83-31.81-2.81-1.96-7.39-.59-8.94,2.34-12.9,24.38,9.97,46.38,23.78,64.97,22.32,30.03,44.58,64.44,72.54,89.34,5.64,5.02,13.95-1.23,10.43-8.05-13.86-26.82-35.43-50.29-53.91-74.02-9.63-12.36-19.76-24.3-29.52-36.56-3.33-3.91-6.46-7.98-9.39-12.21l15.03-2.86c1.67.44,10.37,8.95,11.53,9.84.58.45,1.55-.3,1.28-.98h0Z" fill="#3b0372"/>
          <path d="M1189.72,274.36c3.34-8.02,11.33-31.41,20.42-35.59,11.12,2.62,22.24,5.23,33.36,7.85,3.32,6.13,6.19,12.46,8.6,19,7.35,18.52,13.33,37.81,17.54,57.28,9.1,42.07,2.17,83.28,6.27,125.59.56,5.77,9.63,8.13,10.95,1.48,12.77-64.54,10.15-135.32-18.49-195.44-8.76-18.39-25.77-37.84-48.48-33.06-22.26,4.68-31.05,32.2-34.2,51.78-.43,2.69,3,3.59,4.03,1.11h0Z" fill="#3b0372"/>
          <path d="M1564,260.07c4.54-7.72.17-17.21-8.49-20.37-15.69-5.72-26.48,12.34-32.79,23.21-13.11,22.59-23.48,46.81-33.21,71.01-10.31,25.65-23.74,55.3-24.29,83.25-.13,6.53,9.33,9.26,12.48,3.38,15.25-28.54,21.09-63.18,33.8-93.19,6.84-16.15,14.49-31.89,22.44-47.52,6.52-12.83,12.21-23.03,27.35-18.67,1.02.29,2.17-.2,2.7-1.1h.01Z" fill="#3b0372"/>
          <path d="M1755.34,353.35c42.12-6.73,83.26-72.55,77-113.08-.43-2.81-4.27-2.67-5.57-.73-12.53,18.69-19.19,40.86-31.26,60-11.85,18.8-30.74,33.12-41.34,52.29-.47.85.3,1.66,1.17,1.52h0Z" fill="#3b0372"/>
        </g>
      </g>
      <path d="M1809.58,3283.4c-48.74,0-114.27-11.12-171.03-29.02-20.38-6.42-37.11-21.5-45.92-41.37-8.78-19.81-8.7-42.32.23-61.77,12.36-26.9,38.14-50.82,76.73-71.25l-10.81-72.87c-5.14-6.27-11.06-12.82-17.91-19.81-82.85,22.42-174,27.93-271.19,16.33-1.92-.09-3.85-.34-5.74-.74-3.49-.44-6.98-.87-10.47-1.34-33.8,23.65-71.1,39.8-111.17,48.16l-3.75,22.58c33.56,13.58,59.24,38.31,71.79,69.75,8.91,22.34,8.51,46.77-1.13,68.77-9.85,22.49-28.89,40.5-52.23,49.43-15.66,6-32.69,9.03-50.63,9.03-24.66,0-51.14-5.51-80.7-16.82-47.1,22.98-99.94,21.66-157.29-3.94-23.69,8.65-48.76,12.01-74.66,9.97-22.07-1.71-42.27-12.88-55.4-30.63-12.87-17.4-17.55-39.45-12.85-60.49,7.88-35.22,34.87-93,127.02-93,.64,0,1.27,0,1.9.01,18.03-13.01,38.57-21.69,61.28-25.89l15.36-57.79c-58.06-65.61-65.53-168.14-22.19-305.07-2.94-30.91-5.33-61.62-7.15-91.55-3.76-.19-7.48-.47-11.16-.84l-1.12,10.04c-.89,10.31-7.3,19.84-17.08,25-9.81,5.17-21.32,5.06-30.78-.28-21.4-11.52-41.57-27.51-59.59-47.33-6.45-7.08-12.69-14.75-18.87-23.2l-5.45,1.5c-7.79,5.64-16.34,11.07-26,16.54-7.59,4.47-16.84,5.54-25.38,2.94-2.62-.8-5.11-1.91-7.4-3.3l-.8.22c-39.56,10.89-70.42,42.25-80.51,81.84-3.99,15.65-7.52,31.86-11.24,49.03-10.44,48-21.23,97.63-43.42,142.06-25.87,51.81-73.1,90.81-129.55,107.02l-351.64,100.92c-5.77,1.66-11.73,2.5-17.72,2.5h-.02c-28.5,0-53.93-19.11-61.84-46.47L2.51,2667.88c-4.87-16.85-2.59-35.21,6.27-50.36,8.86-15.15,23.73-26.15,40.81-30.16l385.31-90.63c28.06-6.6,57.8-3.33,83.74,9.2l55.47,26.79c39.74-47.73,92.03-82.1,151.87-99.71l52.46-15.43c17.47-200.11,129.75-425.6,295.44-482.72-115.5-71.03-200.66-176.94-237.08-296.79-44.22-141.06-30.65-307.64,38.24-468.91,8.77-20.69,18.53-41.46,29.12-62.01-5.32-2.75-10.22-6.37-14.62-10.81-24.71-24.96-26.7-69.37-5.81-117.58-14.17-24.53-28.36-46.75-43.01-67.33-28.57,19.06-56.72,31.36-85.6,37.44-1.67.34-3.25.55-4.8.64-18.34,1.13-37.32,1.71-56.31,1.71-46.61,0-94.61-3.47-142.65-10.31-32.77-4.67-63.09-20.2-85.39-43.72-59.38-62.65-82.05-141.28-63.84-221.42,18-79.2,76.42-149.26,153.74-185.28,18.4-115.12,123.01-227.16,217.81-278.87,54.07-29.5,102.51-39.19,141.03-28.33C1028.39,93.73,1146.89,31.03,1258,1.72c115.41-30.43,220.81-24.38,304.91,17.51,2.3.92,4.4,2.02,6.38,3.35l.47.24c1.44.74,2.87,1.49,4.3,2.25,105.28-2.32,193.52,17.55,269.61,60.84,20.89,11.88,37.18,30.7,45.85,52.99,25.37,65.23,34.13,133.92,26.79,209.97-1.84,19.1-9.86,37.33-22.59,51.32-24.56,26.99-54.04,53.04-82.54,78.23-35.02,30.96-74.34,65.7-90.21,92.5,20.98,58.45,47.14,115.3,77.86,169.18,35.86,21.35,54.58,42.68,58.79,66.85,1.25,7.16,1.17,14.25-.22,21.19,61.71,39.17,116.99,85.9,164.49,139.06,86.9,98.1,126.9,218.67,118.94,358.41-6.11,107.29-39.25,223.82-101.25,355.92,28.57,49.37,36.08,103.06,21.67,155.93-18.67,68.49-74.55,131.97-149.46,169.8-27.51,14.19-57.06,25.79-88.08,34.6,23.43,40.09,29.1,85.26,15.78,128.54.09.11.18.21.26.32,16.54-7.23,32.95-14.43,49.23-21.57,67.87-97.83,186.58-167.1,251.68-146.03,14.19,4.58,25.3,13.09,32.64,24.68,115.17-45.7,189.38-67.22,239.11-69.48.3-.01.6-.02.91-.02,27.31,0,51.5,7.87,74.89,15.48,16.23,5.28,32.88,10.7,50.23,13.13,4.69-23,19.12-47.98,43.11-74.57,80.31-88.99,275.43-200.14,410.85-178.98,37.56,5.87,70.43,28.84,90.19,63.03h0c27.3,47.25,40.87,100.89,39.25,155.13-2.11,70.78-30.63,138.33-80.31,190.22-48.73,50.89-114.64,83.58-185.6,92.05-13.04,1.56-26.1,2.34-38.81,2.34-95.88,0-178.29-44.14-233.37-124.63-32.68,2.39-68.02-4.27-107.59-20.27-15.34-6.2-31.66-8.06-47.19-5.34-42.95,7.46-105.15,27.9-195.02,64.13.17,8.62.01,17.38-.48,25.98-1.21,32.47-18,60-51.3,83.75-22.46,17.13-46.86,30.74-72.53,40.44-17.06,6.42-34.88,10.52-52.14,12.05l-78.29,126.88c24.7,105.99,14.91,209.85-28.42,301.11-10.1,83.95-37.62,163.12-81.82,235.37-.27.44-.55.89-.83,1.33,3.41,21.6,7.44,44.44,12.22,69.25,21.65.92,41.75,5.31,59.37,9.98,61.57-6.74,115.01,25.88,141.21,61.9,23.78,32.71,28.82,70.24,13.46,100.4-12.94,25.41-45.03,55.74-124.4,56.85-31.39,8.37-64.82,8.96-101.94,1.76-3.59,1.15-7.2,1.95-10.81,2.39-1.65.23-3.23.35-5,.33-12.29,2.39-26.63,3.59-42.67,3.59v.02ZM1646.7,2944.89c5.13,0,10.15,1.98,13.94,5.65,13.34,12.96,24.1,24.73,32.89,35.98,2.13,2.73,3.52,5.96,4.03,9.38l13.74,92.54c1.29,8.71-3.26,17.24-11.22,21.01-37.31,17.7-61.16,37.37-70.86,58.49-4.14,9.01-4.15,19.53-.01,28.85,4.16,9.38,11.95,16.47,21.38,19.44,53.15,16.76,114.07,27.17,159,27.17,14.41,0,26.85-1.09,36.99-3.25,1.9-.41,3.85-.52,5.8-.37,1.9-.24,3.92-.82,6.02-1.75,3.84-1.69,8.11-2.12,12.22-1.25,33.99,7.26,63.82,7.03,91.17-.68,1.73-.49,3.52-.74,5.32-.75,47.74-.27,80.3-12.71,91.67-35.03,8.39-16.48,4.59-38.43-10.17-58.72-19.77-27.19-60.67-51.73-107.55-45.28-2.66.36-5.37.2-7.97-.51-20.03-5.44-43.81-10.83-68.15-9.6-9.98.42-18.7-6.34-20.64-16.08-6.91-34.82-12.43-65.85-16.88-94.85-.8-5.2.48-10.49,3.56-14.75,1.36-1.88,2.68-3.79,3.9-5.78,41.73-68.21,67.5-143.04,76.6-222.42.25-2.24.89-4.42,1.87-6.45,41.59-85.82,50.26-184.48,25.09-285.31-1.3-5.23-.44-10.76,2.38-15.35l88.13-142.83c3.55-5.76,9.77-9.33,16.54-9.49,16.2-.39,33.51-3.89,50.07-10.11,22.09-8.35,43.18-20.14,62.62-35,.19-.14.37-.28.56-.41,23-16.35,34.06-33.27,34.81-53.24.58-10.34.65-20.57.21-30.77-.04-1.63-.13-2.93-.28-4.24-1.03-8.92,4-17.43,12.31-20.82,101.07-41.22,167.8-63.37,216.37-71.81,22.89-3.98,46.77-1.33,69.03,7.68,38.04,15.38,70.62,20.72,99.59,16.34,7.88-1.19,15.67,2.39,19.91,9.11,47.38,75.15,120.71,116.53,206.47,116.53,11.14,0,22.6-.69,34.08-2.06,61.77-7.37,119.1-35.79,161.45-80,42.82-44.72,67.4-102.87,69.21-163.74,1.4-46.8-10.33-93.11-33.91-133.93-13.67-23.66-36.17-39.52-61.72-43.52-118.45-18.52-304.19,87.82-374.98,166.26-23.81,26.38-36.01,50.23-34.35,67.16.55,5.61-1.3,11.19-5.08,15.37s-9.15,6.57-14.78,6.58h-.34c-30.41,0-57.21-8.72-80.86-16.42-22.14-7.21-41.29-13.43-62.06-13.52-47.03,2.27-124.59,25.79-244.01,74-5.53,2.23-11.77,1.88-17.02-.96-5.24-2.85-8.95-7.89-10.09-13.75-1.7-8.71-6.11-13.77-14.29-16.42-38.46-12.42-145.73,39.99-209.46,135.12-2.12,3.16-5.09,5.65-8.58,7.18-22.58,9.91-45.44,19.93-68.51,30-8.23,3.6-17.89,1.25-23.55-5.75-2.71-3.34-5.48-6.66-8.26-9.97-.49-.59-.95-1.2-1.37-1.84-.55-.52-1.07-1.06-1.51-1.58l-2.32-2.78c-1.02-1.22-2.04-2.45-3.1-3.66-4.87-5.61-6.23-13.47-3.52-20.39,16.42-42.05,8.1-87.69-22.82-125.22-4.42-5.37-5.74-12.65-3.48-19.22,2.26-6.58,7.78-11.51,14.56-13.02,38.16-8.51,74.22-21.44,107.17-38.43,65.12-32.89,113.31-86.95,129.05-144.69,12.29-45.1,4.48-91.23-22.6-133.41-3.74-5.82-4.2-13.17-1.22-19.42,140.39-294.11,138.15-516.65-6.84-680.32-48.34-54.12-105.32-101.27-169.27-140.09-9.2-5.58-12.33-17.44-7.09-26.83,2.51-4.51,3.33-8.66,2.57-13.06-2.13-12.23-16.94-26.28-44.01-41.77-3.08-1.76-5.63-4.3-7.4-7.37-34.54-59.89-63.64-123.38-86.48-188.7-1.71-4.88-1.46-10.23.69-14.93,16.14-35.24,60.62-74.56,103.65-112.58,27.72-24.5,56.37-49.82,79.47-75.2,6.95-7.64,11.34-17.66,12.36-28.22,6.72-69.69-1.21-132.38-24.26-191.64-5.35-13.75-15.42-25.37-28.34-32.73-70.83-40.3-153.95-58.44-254.12-55.48-3.72.11-7.33-.8-10.53-2.63-2.59-1.49-5.25-2.86-7.91-4.24l-1.79-.93c-.71-.37-1.41-.79-2.07-1.24-.54-.21-1.08-.45-1.57-.7-154.66-77.65-390.22-14.09-614.79,165.91-5.68,4.56-13.39,5.67-20.14,2.88-28.23-11.66-70.18-3.66-118.11,22.5-84.86,46.29-183.06,150.64-197.89,252.84-.1.68-.23,1.34-.4,2.01-.02.67-.06,1.34-.13,1.93l-.4,2.95c-.8,7.25-5.46,13.49-12.19,16.29-70.79,29.49-124.7,91.52-140.69,161.89-15.16,66.68,3.97,132.4,53.87,185.04,16.11,17,38.13,28.23,62,31.64,64.75,9.22,129.52,12.01,190.44,8.3,28.29-6.05,56.37-19.75,85.72-41.87,8.82-6.65,21.36-4.89,28,3.93,21.62,28.67,42.05,60.16,62.45,96.28,3.25,5.75,3.45,12.75.53,18.68-17.28,35.07-19.77,67.84-6.19,81.56,3.57,3.61,7.9,5.37,13.22,5.37l.04-.03,1.66-.14c7.22-.5,14.27,3.05,18.19,9.23,3.92,6.17,4.17,13.99.64,20.39-14.83,26.9-28.24,54.42-39.85,81.82-65.17,152.56-78.24,309.32-36.83,441.45,38.01,125.05,133.85,233.81,263.02,298.55,7.91,3.97,12.28,12.66,10.73,21.38s-8.64,15.38-17.43,16.38c-9.02,1.02-17.68,2.56-25.75,4.58-161.83,39.91-275.64,273.48-288.31,467.01-.55,8.37-6.26,15.51-14.31,17.88l-65.7,19.33c-55.24,16.25-103.1,48.89-138.41,94.39-7.63,9.83-21.3,13.04-32.51,7.63l-65.11-31.45c-17.73-8.55-38.05-10.8-57.19-6.28l-385.31,90.63c-6.46,1.52-12.09,5.68-15.44,11.41-3.35,5.74-4.22,12.68-2.37,19.06l99.61,344.39c2.99,10.36,12.63,17.59,23.42,17.58,2.26,0,4.51-.32,6.69-.94l351.64-100.92c45.72-13.12,83.92-44.63,104.8-86.45,19.95-39.96,30.2-87.09,40.11-132.69,3.81-17.53,7.41-34.08,11.57-50.42,13.64-53.48,55.28-95.83,108.65-110.52l11.73-3.23c6.51-1.8,13.28-.15,18.19,3.98,7.19-4.28,13.58-8.52,19.4-12.89,2-1.5,4.27-2.62,6.69-3.28l22.63-6.23c8.3-2.27,17.13,1,21.92,8.15,7.82,11.68,15.52,21.64,23.54,30.44,12.15,13.37,25.38,24.58,39.42,33.44l2.12-19.04c.62-5.6,3.58-10.67,8.14-13.97,4.56-3.31,10.3-4.54,15.8-3.4,13.43,2.79,27.9,3.96,42.98,3.52.2,0,.41-.01.6-.01,10.59,0,19.4,8.29,19.96,18.94,1.94,36.54,4.8,74.45,8.48,112.67.26,2.72-.03,5.45-.87,8.05-41.73,129.56-35.29,222.76,19.15,276.98,5.06,5.04,7.06,12.4,5.22,19.31l-21.62,81.31c-2.13,8.04-9.02,13.92-17.3,14.76-23.15,2.36-43.41,10.39-60.23,23.86-3.76,3.01-8.5,4.56-13.3,4.37-54.58-2.2-85.85,17.96-95.61,61.57-2.17,9.71,0,19.91,5.98,27.98,6.23,8.42,15.82,13.72,26.34,14.53,22.54,1.78,44.2-1.69,64.38-10.24,5.3-2.26,11.32-2.11,16.5.39,51.58,24.87,97.69,26.31,137.06,4.28,5.34-2.99,11.74-3.36,17.4-1.04,27.8,11.47,52.76,17.28,74.2,17.28,13.21,0,25.1-2.09,36.33-6.39,13.41-5.13,24.3-15.39,29.88-28.12,5.31-12.13,5.53-25.59.62-37.91-9.92-24.84-32.66-43.71-62.38-51.77-9.92-2.69-16.19-12.45-14.5-22.58l8.84-53.2c1.41-8.48,8.08-15.11,16.57-16.47,41.83-6.69,80.42-22.94,114.7-48.29,4.25-3.15,9.55-4.48,14.81-3.71,6.29.93,12.55,1.72,18.79,2.5.66.08,1.31.2,1.96.34.52.02,1.05.06,1.57.13,96.62,11.64,186.63,5.53,267.54-18.11,1.85-.54,3.74-.8,5.61-.8l-.04-.06ZM1851.64,3239.87h-.01.01ZM949.66,2598.92c-.02.14-.03.28-.05.42l.05-.42ZM960.64,2592.85c.08.04.16.08.23.13-.08-.04-.16-.09-.23-.13ZM811.31,2541.06s-.02.01-.03.02c0,0,.02-.01.03-.02ZM747.96,909.59h-.05.05ZM594.36,502.31h0Z" fill="#3b0372"/>
    </g>
  </g>
</svg>